<?xml version="1.0" encoding="utf-8"?>
<!-- Generator: Adobe Illustrator 26.5.0, SVG Export Plug-In . SVG Version: 6.00 Build 0)  -->
<svg version="1.1" id="Layer_1" xmlns="http://www.w3.org/2000/svg" xmlns:xlink="http://www.w3.org/1999/xlink" x="0px" y="0px"
	 viewBox="0 0 900 768" style="enable-background:new 0 0 900 768;" xml:space="preserve">
<style type="text/css">
	.st0{enable-background:new    ;}
	.st1{fill:#FFFFFF;}
	.st2{font-family:'ArialRoundedMTBold';}
	.st3{font-size:21px;}
	.st4{fill:#13E271;}
	.st5{font-size:19px;}
	.st6{font-size:26.6041px;}
	.st7{fill:none;stroke:#83868A;stroke-miterlimit:10;}
	.st8{fill:none;stroke:#415D86;stroke-width:2;stroke-miterlimit:10;}
	.st9{fill:#83868A;}
	.st10{fill:none;}
	.st11{font-size:20px;}
</style>
<text transform="matrix(1 0 0 1 290.6205 227.2164)" class="st0"><tspan x="0" y="0" class="st1 st2 st3">“</tspan><tspan x="9.6" y="0" class="st4 st2 st3">30</tspan></text>
<text transform="matrix(1 0 0 1 326.9815 227.2164)" class="st1 st2 st5"> minutes” </text>
<text transform="matrix(1 0 0 1 293.6508 576.6599)" class="st1 st2 st6">vs</text>
<g>
	<g>
		<g>
			<path class="st7" d="M329.9,269.4c-16.5,0-33.1,0-49.6,0v17.6h56.1v-7.2C336.4,279.8,338.9,269.4,329.9,269.4z"/>
			<rect x="287.7" y="274.3" class="st7" width="12.2" height="5.5"/>
			<path class="st7" d="M279,274.3"/>
			<path class="st7" d="M279,279.8"/>
			<polyline class="st7" points="280.3,274.3 285.1,274.3 285.1,279.8 280.3,279.8 			"/>
			<rect x="304.3" y="274.3" class="st7" width="12.2" height="5.5"/>
			<polyline class="st7" points="319.6,286.9 319.6,273.7 326,273.7 326,286.9 			"/>
			<polyline class="st7" points="329.9,269.4 329.9,279.8 336.4,279.8 			"/>
			<line class="st7" x1="293.8" y1="265.6" x2="307.1" y2="265.6"/>
			<circle class="st7" cx="285.3" cy="290.1" r="2.5"/>
			<circle class="st7" cx="295.1" cy="290.1" r="2.5"/>
			<circle class="st7" cx="318.3" cy="290.1" r="2.5"/>
			<circle class="st7" cx="328.2" cy="290.1" r="2.5"/>
			<line class="st7" x1="337.4" y1="293.3" x2="278.6" y2="293.3"/>
		</g>
	</g>
	<g>
		<g>
			<polyline class="st7" points="364.7,291.4 360.6,291.4 360.6,266.8 409,266.8 412.7,277.6 412.7,289.8 412.7,291.4 406.2,291.4 
							"/>
			<line class="st7" x1="398.8" y1="291.4" x2="372.2" y2="291.4"/>
			<path class="st7" d="M410.1,269.8h-12v9.2c0,0,4.9,4.7,14.6,4.7"/>
			<rect x="363.4" y="269.8" class="st7" width="14.2" height="9.2"/>
			<line class="st7" x1="370.5" y1="269.8" x2="370.5" y2="279"/>
			<rect x="380.4" y="269.8" class="st7" width="14.2" height="9.2"/>
			<line class="st7" x1="387.4" y1="269.8" x2="387.4" y2="279"/>
			<circle class="st7" cx="368.6" cy="291.5" r="4.2"/>
			<circle class="st7" cx="402.4" cy="291.5" r="4.2"/>
			<polyline class="st7" points="398.1,284.3 399,285.2 400.3,283.9 			"/>
		</g>
	</g>
</g>
<g>
	<g>
		<g>
			<path class="st7" d="M417.6,552.9c-17.8,0-35.6,0-53.3,0v18.9h60.3v-7.7C424.6,564.1,427.3,552.9,417.6,552.9z"/>
			<rect x="372.2" y="558.2" class="st7" width="13.2" height="5.9"/>
			<path class="st7" d="M362.9,558.2"/>
			<path class="st7" d="M362.9,564.1"/>
			<polyline class="st7" points="364.3,558.2 369.4,558.2 369.4,564.1 364.3,564.1 			"/>
			<rect x="390" y="558.2" class="st7" width="13.2" height="5.9"/>
			<polyline class="st7" points="406.5,571.8 406.5,557.5 413.4,557.5 413.4,571.8 			"/>
			<polyline class="st7" points="417.6,552.9 417.6,564.1 424.6,564.1 			"/>
			<line class="st7" x1="378.8" y1="548.8" x2="393.1" y2="548.8"/>
			<circle class="st7" cx="369.6" cy="575.1" r="2.7"/>
			<circle class="st7" cx="380.2" cy="575.1" r="2.7"/>
			<circle class="st7" cx="405.1" cy="575.1" r="2.7"/>
			<circle class="st7" cx="415.8" cy="575.1" r="2.7"/>
			<line class="st7" x1="425.7" y1="578.6" x2="362.4" y2="578.6"/>
		</g>
	</g>
	<g>
		<g>
			<polyline class="st7" points="455,576.5 450.7,576.5 450.7,550.1 502.7,550.1 506.7,561.7 506.7,574.8 506.7,576.5 499.7,576.5 
							"/>
			<line class="st7" x1="491.7" y1="576.5" x2="463.1" y2="576.5"/>
			<path class="st7" d="M503.9,553.3H491v9.9c0,0,5.3,5,15.7,5"/>
			<rect x="453.6" y="553.3" class="st7" width="15.3" height="9.9"/>
			<line class="st7" x1="461.3" y1="553.3" x2="461.3" y2="563.2"/>
			<rect x="471.9" y="553.3" class="st7" width="15.3" height="9.9"/>
			<line class="st7" x1="479.5" y1="553.3" x2="479.5" y2="563.2"/>
			<circle class="st7" cx="459.2" cy="576.7" r="4.5"/>
			<circle class="st7" cx="495.6" cy="576.7" r="4.5"/>
			<polyline class="st7" points="491,569 492,569.9 493.4,568.5 			"/>
		</g>
	</g>
</g>
<g>
	<path class="st8" d="M484.2,504"/>
	<text transform="matrix(1 0 0 1 239.5339 517.6293)" class="st0"><tspan x="0" y="0" class="st1 st2 st3">“</tspan><tspan x="9.6" y="0" class="st4 st2 st3">2</tspan></text>
	<text transform="matrix(1 0 0 1 275.895 517.6293)" class="st1 st2 st5">times of driving time” </text>
	<path class="st9" d="M477.8,524.1c0-0.4-0.3-0.6-0.6-0.6h-1.4c-0.4,0-0.6,0.3-0.6,0.6c0,0.4,0.3,0.6,0.6,0.6h1.3
		C477.5,524.7,477.8,524.5,477.8,524.1z"/>
</g>
<g>
	<path class="st9" d="M257.4,560.8l-8-1l-4.2-6.9c-1.3-2.1-3.6-3.4-6.2-3.4h-14.4c-4.2,0-7.8,2.8-9,6.9l-0.1,0.4
		c-0.6,2-2.1,3.6-4.1,4.2c-1.7,0.4-2.8,2-2.8,3.6v9.9c0,0.6,0.4,0.8,0.8,0.8h4.6c0.6,2.7,2.9,4.8,5.9,4.8c2.9,0,5.3-2.1,5.9-4.8
		h19.5c0.6,2.7,2.9,4.8,5.9,4.8s5.3-2.1,5.9-4.8h4.8c0.4,0,0.8-0.3,0.8-0.8l0.7-6.2C264,564.6,261.2,561.3,257.4,560.8z
		 M210.5,572.5h3.8c-0.1,0.4-0.1,0.7-0.1,1.1h-3.6V572.5z M220,578.3c-2.4,0-4.2-1.8-4.2-4.2c0-2.4,1.8-4.2,4.2-4.2
		c2.4,0,4.2,1.8,4.2,4.2C224.2,576.5,222.4,578.3,220,578.3z M251.2,578.3c-2.4,0-4.2-1.8-4.2-4.2c0-2.4,1.8-4.2,4.2-4.2
		s4.2,1.8,4.2,4.2C255.4,576.5,253.6,578.3,251.2,578.3z M251.2,568.1c-2,0-3.8,1-4.9,2.5h-16c-0.6,0-0.8,0.4-0.8,0.8
		c0,0.4,0.4,0.8,0.8,0.8h15.1c-0.1,0.4-0.1,0.7-0.1,1.1H226c-0.3-3.1-2.8-5.5-6-5.5c-2,0-3.8,1-4.9,2.5h-4.6v-6.2
		c0-0.8,0.6-1.7,1.4-2c2.7-0.7,4.6-2.8,5.3-5.5l0.1-0.4c0.8-3.2,3.9-5.5,7.3-5.5H239c1.8,0,3.6,1,4.6,2.5l4.5,7.3
		c0.1,0.3,0.4,0.4,0.7,0.4l8.4,1c2,0.3,3.5,1.5,4.2,3.1h-2.8c-0.6,0-0.8,0.4-0.8,0.8c0,0.6,0.4,0.8,0.8,0.8h3.2c0,0.3,0,0.4,0,0.7
		l-0.3,2.5h-5.3C255,569.1,253.2,568.1,251.2,568.1z M257.2,573.6c0-0.4-0.1-0.7-0.1-1.1h4.2l-0.1,1.1H257.2z"/>
	<path class="st9" d="M239.2,563.1h-1.8c-0.6,0-0.8,0.4-0.8,0.8c0,0.6,0.4,0.8,0.8,0.8h1.8c0.6,0,0.8-0.4,0.8-0.8
		C240,563.5,239.6,563.1,239.2,563.1z"/>
	<path class="st9" d="M242.8,554.5c-0.8-1.3-2.2-2.1-3.6-2.1h-14.4c-2.9,0-5.5,2-6.2,4.8l-0.1,0.4c-0.3,1.1-0.7,2.9-0.7,2.9
		c0,0.3,0,0.6,0.1,0.7c0.1,0.3,0.4,0.3,0.7,0.3h27.2c0.3,0,0.6-0.1,0.8-0.4c0.1-0.3,0.1-0.6,0-0.8L242.8,554.5z M232.5,554.3v5.6
		h-8.3v-5.6c0.1,0,0.3,0,0.4,0H232.5L232.5,554.3z M220,558l0.1-0.4c0.3-1.3,1.1-2.2,2.2-2.8v5h-2.8
		C219.7,559.3,219.9,558.5,220,558z M234.3,559.9v-5.6h4.9c0.8,0,1.7,0.4,2.1,1.3l2.7,4.5h-9.7V559.9z"/>
</g>
<rect x="195.4" y="161.9" class="st10" width="349.5" height="31.9"/>
<text transform="matrix(1 0 0 1 197.3599 176.4351)" class="st1 st2 st11">Type 1. Travel time by public transit </text>
<rect x="195.4" y="427.2" class="st10" width="349.5" height="31.9"/>
<text transform="matrix(1 0 0 1 197.3599 441.7647)" class="st1 st2 st11">Type 2. Travel time by public transit </text>
<rect x="275.2" y="453.1" class="st10" width="349.5" height="31.9"/>
<text transform="matrix(1 0 0 1 275.2301 467.6523)" class="st1 st2 st11">compared to driving time</text>
</svg>
