<?xml version="1.0" encoding="utf-8"?>
<!-- Generator: Adobe Illustrator 26.5.0, SVG Export Plug-In . SVG Version: 6.00 Build 0)  -->
<svg version="1.1" id="Layer_1" xmlns="http://www.w3.org/2000/svg" xmlns:xlink="http://www.w3.org/1999/xlink" x="0px" y="0px"
	 viewBox="0 0 900 768" style="enable-background:new 0 0 900 768;" xml:space="preserve">
<style type="text/css">
	.st0{fill:none;stroke:#415D86;stroke-width:2;stroke-miterlimit:10;}
	.st1{fill:none;stroke:#415D86;stroke-width:2;stroke-miterlimit:10;stroke-dasharray:6.345,6.345;}
	.st2{fill:#415D86;}
	.st3{fill:none;}
	.st4{fill:none;stroke:#415D86;stroke-width:2;stroke-miterlimit:10;stroke-dasharray:5.2988,5.2988;}
	.st5{fill:none;stroke:#415D86;stroke-width:2.5;stroke-linecap:round;stroke-linejoin:round;stroke-miterlimit:10;}
	.st6{fill:none;stroke:#415D86;stroke-width:2.5;stroke-linecap:round;stroke-linejoin:round;}
	.st7{fill:#FFFFFF;}
	.st8{font-family:'ArialRoundedMTBold';}
	.st9{font-size:16.71px;}
	.st10{font-size:19.5052px;}
	.st11{font-size:16.7188px;}
	.st12{fill:none;stroke:#83868A;stroke-miterlimit:10;}
	.st13{fill:none;stroke:#13E271;stroke-width:0.75;stroke-miterlimit:10;}
	.st14{fill:#C6C6C6;}
</style>
<g>
	<g>
		<line class="st0" x1="207.7" y1="260.3" x2="207.7" y2="263.3"/>
		<line class="st1" x1="207.7" y1="269.7" x2="207.7" y2="304.6"/>
		<line class="st0" x1="207.7" y1="307.8" x2="207.7" y2="310.8"/>
		<g>
			<path class="st2" d="M200.9,301.2c0.3-0.2,0.8-0.1,1,0.2l5.8,9l5.8-9c0.2-0.3,0.6-0.4,1-0.2c0.3,0.2,0.4,0.6,0.2,1l-6.3,10
				c-0.1,0.2-0.4,0.3-0.6,0.3s-0.5-0.1-0.6-0.3l-6.3-10c-0.1-0.1-0.1-0.2-0.1-0.4C200.6,301.5,200.7,301.3,200.9,301.2z"/>
		</g>
	</g>
</g>
<g>
	<path class="st3" d="M207.7,260.3"/>
</g>
<g>
	<path class="st3" d="M207.7,234.3"/>
</g>
<g>
	<g>
		<line class="st0" x1="207.7" y1="191.2" x2="207.7" y2="194.2"/>
		<line class="st4" x1="207.7" y1="199.5" x2="207.7" y2="228.7"/>
		<line class="st0" x1="207.7" y1="231.3" x2="207.7" y2="234.3"/>
	</g>
</g>
<polyline class="st5" points="523.4,381.6 523.4,328.5 253.8,329.1 "/>
<path class="st0" d="M523.4,381.6"/>
<path class="st0" d="M523.4,394.6"/>
<path class="st0" d="M523.4,394.6"/>
<path class="st0" d="M523.4,411.3"/>
<polyline class="st5" points="196,544.8 196,480.3 523.4,480.3 523.4,481 523.4,411.3 "/>
<path class="st0" d="M196,544.8"/>
<g>
	<g>
		<polyline class="st6" points="488.4,632.2 196,632.9 196,576.8 		"/>
		<g>
			<polygon class="st2" points="485.9,623.5 501,632.2 485.9,640.9 			"/>
		</g>
	</g>
</g>
<text transform="matrix(1 0 0 1 543.6553 402.1094)" class="st7 st8 st9">Transit Hub</text>
<text transform="matrix(1 0 0 1 173.9897 335.2329)" class="st7 st8 st10">Pick-up</text>
<text transform="matrix(1 0 0 1 337.228 349.1655)" class="st7 st8 st11">Shuttle</text>
<text transform="matrix(1 0 0 1 145.4596 253.0317)" class="st7 st8 st11">Shuttle Routing</text>
<text transform="matrix(1 0 0 1 305.2964 502.4219)" class="st7 st8 st11">Public Transit</text>
<text transform="matrix(1 0 0 1 337.228 652.8896)" class="st7 st8 st11">Shuttle</text>
<text transform="matrix(1 0 0 1 83.9371 566.7101)" class="st7 st8 st9">Transit Hub</text>
<g>
	<g>
		<path class="st12" d="M347.4,451.2c-12.7,0-25.4,0-38.1,0v13.5h43.1v-5.5C352.4,459.2,354.3,451.2,347.4,451.2z"/>
		<rect x="315" y="455" class="st12" width="9.4" height="4.2"/>
		<path class="st12" d="M308.3,455"/>
		<path class="st12" d="M308.3,459.2"/>
		<polyline class="st12" points="309.3,455 313,455 313,459.2 309.3,459.2 		"/>
		<rect x="327.7" y="455" class="st12" width="9.4" height="4.2"/>
		<polyline class="st12" points="339.5,464.7 339.5,454.5 344.4,454.5 344.4,464.7 		"/>
		<polyline class="st12" points="347.4,451.2 347.4,459.2 352.4,459.2 		"/>
		<line class="st12" x1="319.7" y1="448.3" x2="329.9" y2="448.3"/>
		<circle class="st12" cx="313.1" cy="467.1" r="1.9"/>
		<circle class="st12" cx="320.7" cy="467.1" r="1.9"/>
		<circle class="st12" cx="338.5" cy="467.1" r="1.9"/>
		<circle class="st12" cx="346.1" cy="467.1" r="1.9"/>
		<line class="st12" x1="353.2" y1="469.6" x2="308" y2="469.6"/>
	</g>
</g>
<g>
	<g>
		<polyline class="st12" points="374.1,468.1 371,468.1 371,449.2 408.2,449.2 411,457.5 411,466.9 411,468.1 406,468.1 		"/>
		<line class="st12" x1="400.3" y1="468.1" x2="379.9" y2="468.1"/>
		<path class="st12" d="M409,451.5h-9.2v7.1c0,0,3.8,3.6,11.2,3.6"/>
		<rect x="373.1" y="451.5" class="st12" width="10.9" height="7.1"/>
		<line class="st12" x1="378.6" y1="451.5" x2="378.6" y2="458.6"/>
		<rect x="386.2" y="451.5" class="st12" width="10.9" height="7.1"/>
		<line class="st12" x1="391.6" y1="451.5" x2="391.6" y2="458.6"/>
		<circle class="st12" cx="377.1" cy="468.2" r="3.2"/>
		<circle class="st12" cx="403.1" cy="468.2" r="3.2"/>
		<polyline class="st12" points="399.8,462.7 400.5,463.4 401.5,462.4 		"/>
	</g>
</g>
<g>
	<path class="st13" d="M382.1,317.6c0.9,0,1.4,0,1.6,0c1.3,0,2.3-1.7,2.3-1.7s0-5.8,0-7.1c0-1.3-0.6-1-0.6-1h-2.6l-5.2-8.4h-33.1
		l-2.8,8.6c0,0-0.3,5.7,0,7.7s2.8,2,2.8,2h2"/>
	<path class="st13" d="M354.3,317.6c6.1,0,13.9,0,19.9,0"/>
	<line class="st13" x1="341.7" y1="307.9" x2="382.7" y2="307.9"/>
	<line class="st13" x1="351.6" y1="299.3" x2="351.6" y2="307.9"/>
	<line class="st13" x1="361.5" y1="299.3" x2="361.5" y2="307.9"/>
	<line class="st13" x1="371.5" y1="299.3" x2="371.5" y2="307.9"/>
	<line class="st13" x1="361.5" y1="317.6" x2="361.5" y2="310.8"/>
	<line class="st13" x1="371.5" y1="317.6" x2="371.5" y2="310.8"/>
	<path class="st13" d="M346.3,317.2c0-2.4,1.9-4.3,4.3-4.3s4.3,1.9,4.3,4.3s-1.9,4.3-4.3,4.3S346.3,319.6,346.3,317.2"/>
	<circle class="st13" cx="378.1" cy="317.2" r="4.3"/>
</g>
<g>
	<path class="st13" d="M382.1,623.6c0.9,0,1.4,0,1.6,0c1.3,0,2.3-1.7,2.3-1.7s0-5.8,0-7.1s-0.6-1-0.6-1h-2.6l-5.2-8.4h-33.1
		l-2.8,8.6c0,0-0.3,5.7,0,7.7s2.8,2,2.8,2h2"/>
	<path class="st13" d="M354.3,623.6c6.1,0,13.9,0,19.9,0"/>
	<line class="st13" x1="341.7" y1="613.9" x2="382.7" y2="613.9"/>
	<line class="st13" x1="351.6" y1="605.3" x2="351.6" y2="613.9"/>
	<line class="st13" x1="361.5" y1="605.3" x2="361.5" y2="613.9"/>
	<line class="st13" x1="371.5" y1="605.3" x2="371.5" y2="613.9"/>
	<line class="st13" x1="361.5" y1="623.6" x2="361.5" y2="616.8"/>
	<line class="st13" x1="371.5" y1="623.6" x2="371.5" y2="616.8"/>
	<path class="st13" d="M346.3,623.2c0-2.4,1.9-4.3,4.3-4.3s4.3,1.9,4.3,4.3c0,2.4-1.9,4.3-4.3,4.3S346.3,625.6,346.3,623.2"/>
	<circle class="st13" cx="378.1" cy="623.2" r="4.3"/>
</g>
<g>
	<path class="st7" d="M516.5,594.7c-3,0-5.5,2.5-5.5,5.5s2.5,5.5,5.5,5.5s5.5-2.5,5.5-5.5S519.5,594.7,516.5,594.7z"/>
	<path class="st7" d="M516.5,584.8c-8.5,0-15.5,7-15.5,15.5c0,1.4,0.2,2.8,0.6,4.2c0.1,0.5,0.3,1,0.5,1.5l0.5,1.1l14,25.8l14-25.8
		l0.5-1c0.2-0.5,0.4-1,0.5-1.5c0.4-1.3,0.6-2.7,0.6-4.2C532,591.8,525,584.8,516.5,584.8z M516.5,608.1c-4.4,0-8-3.6-8-8s3.6-8,8-8
		s8,3.6,8,8S520.9,608.1,516.5,608.1z"/>
</g>
<polygon class="st7" points="528.3,387.9 518.5,387.9 513.6,396.4 518.5,404.9 528.3,404.9 533.2,396.4 "/>
<polygon class="st7" points="200.9,552.3 191.1,552.3 186.2,560.8 191.1,569.2 200.9,569.2 205.8,560.8 "/>
<path class="st7" d="M233,157.8c-0.8,0.7-2.1,10.9-2.8,17.6l-0.8,8.6c0,0.3-0.3,0.6-0.6,0.6h-13.5c-0.3,0-0.6-0.3-0.6-0.6v-5.1
	c-0.6-0.6-1.2-1.3-1.7-2.1l-23.7,0c-4,0-7.3-3.3-7.3-7.3v-53c0-4,3.3-7.3,7.3-7.3h24.8c4,0,7.3,3.3,7.3,7.3v25
	c2.5,1.9,9.5,9.6,10.2,10.2C234.3,153.7,233,157.8,233,157.8L233,157.8z"/>
<path class="st14" d="M207.3,166.9l-6.9-6.5c-3.1-3.2-1.5-5.7-1.5-5.7c0.9-0.8,2.1-0.8,3.3-0.4c0.3,0.1,0.6,0.2,0.8,0.3
	c2.7,1.2,5.5,3.8,5.5,3.8s5.9,3.8,9,3.5V121c0-1-0.8-1.9-1.9-1.9l-27.9,0c-1,0-1.9,0.8-1.9,1.9v44c0,1,0.8,1.9,1.9,1.9L207.3,166.9z
	"/>
<path class="st14" d="M204.1,173.2h-3.8c-0.7,0-1.2-0.5-1.2-1.2l0,0c0-0.7,0.5-1.2,1.2-1.2h3.8c0.7,0,1.2,0.5,1.2,1.2l0,0
	C205.3,172.7,204.8,173.2,204.1,173.2z"/>
<g>
	<path class="st7" d="M210.6,99.8c0,0.4-0.2,0.8-0.5,1c-0.6,0.5-1.4,0.4-1.9-0.2c-0.2-0.2-0.3-0.4-0.5-0.5c-3.3-3.3-8.6-3.3-11.9,0
		c-0.5,0.5-1.4,0.5-1.9,0c-0.5-0.5-0.5-1.4,0-1.9c4.3-4.3,11.4-4.3,15.7,0c0.2,0.2,0.4,0.5,0.6,0.7
		C210.5,99.2,210.6,99.5,210.6,99.8z"/>
	<path class="st7" d="M208.7,103.5c0,0.4-0.2,0.8-0.5,1.1c-0.6,0.5-1.4,0.4-1.9-0.2c-0.1-0.2-0.3-0.4-0.5-0.5
		c-2.2-2.2-5.9-2.2-8.2,0c-0.5,0.5-1.4,0.5-1.9,0c-0.5-0.5-0.5-1.4,0-1.9c3.3-3.3,8.7-3.3,12,0c0.2,0.2,0.5,0.5,0.7,0.7
		C208.6,102.9,208.7,103.2,208.7,103.5z"/>
</g>
</svg>
